<?xml version="1.0" encoding="UTF-8" standalone="no"?>
<!-- Created with Inkscape (http://www.inkscape.org/) -->

<svg
   width="107.72198mm"
   height="122.1176mm"
   viewBox="0 0 107.72198 122.1176"
   version="1.1"
   id="svg1"
   inkscape:version="1.3.2 (091e20e, 2023-11-25, custom)"
   sodipodi:docname="A1.svg"
   xml:space="preserve"
   xmlns:inkscape="http://www.inkscape.org/namespaces/inkscape"
   xmlns:sodipodi="http://sodipodi.sourceforge.net/DTD/sodipodi-0.dtd"
   xmlns="http://www.w3.org/2000/svg"
   xmlns:svg="http://www.w3.org/2000/svg"><sodipodi:namedview
     id="namedview1"
     pagecolor="#ffffff"
     bordercolor="#000000"
     borderopacity="0.25"
     inkscape:showpageshadow="2"
     inkscape:pageopacity="0.0"
     inkscape:pagecheckerboard="0"
     inkscape:deskcolor="#d1d1d1"
     inkscape:document-units="mm"
     inkscape:zoom="1.0841681"
     inkscape:cx="195.54163"
     inkscape:cy="254.11189"
     inkscape:window-width="2560"
     inkscape:window-height="1494"
     inkscape:window-x="-11"
     inkscape:window-y="-11"
     inkscape:window-maximized="1"
     inkscape:current-layer="layer1"
     inkscape:clip-to-page="false" /><defs
     id="defs1" /><g
     inkscape:label="Capa 1"
     inkscape:groupmode="layer"
     id="layer1"
     style="display:inline"
     transform="translate(-53.14796,-81.444509)"><path
       style="display:inline;opacity:1;fill:#000000;stroke-width:0.264583"
       d="m 63.954448,120.13003 2.333656,-1.93709 1.708301,-1.22021 2.852248,-1.73881 3.126798,-1.43375 2.470933,-0.94566 2.653964,-0.67112 2.486187,-0.53384 2.943764,-0.27455 1.586278,-0.0153 2.51669,0.0915 1.525267,0.18303 2.318407,0.48809 2.730227,0.76263 2.440427,0.85415 4.469035,1.63204 1.96759,0.62535 0.77789,0.24405 1.31173,0.25929 0.93041,0.0305 0.56435,0.0763 h 1.17445 l 0.91517,-0.19828 1.05243,-0.24405 1.75406,-0.50333 3.82842,-1.388 2.65396,-0.94566 2.50144,-0.85415 1.79982,-0.47283 2.40992,-0.53385 1.77693,-0.21354 2.08962,-0.16778 3.54625,-0.0229 2.21926,0.1449 2.58533,0.41182 2.37941,0.46521 2.28028,0.64061 2.27265,0.84652 2.24976,1.02956 1.58628,0.81601 1.44138,0.94567 1.5939,1.12107 1.61679,1.37274 1.72355,1.59391 2.29552,2.61583 -1.54051,0.97617 -1.63204,1.1592 -1.60916,1.29648 -1.3041,1.18208 -1.76168,1.79219 -1.46426,1.81507 -1.13633,1.7083 -1.02192,1.72355 -0.71688,1.54052 -0.67112,1.60153 -0.52621,1.79219 -0.34319,1.33461 -0.2898,1.45663 -0.21354,2.12774 -0.0381,3.13443 0.15253,1.97522 0.24404,1.73118 0.7245,2.56245 0.93042,2.53957 1.28122,2.59295 1.1287,1.67017 1.0448,1.43375 1.64729,1.80744 2.24214,2.0286 2.65397,1.94472 2.05149,1.29648 0.88465,0.48045 1.65491,0.8389 1.08294,0.4042 -0.39656,1.22021 -0.67875,2.00573 -0.90753,2.13537 -0.64824,1.26598 -0.99905,1.94471 -1.22022,2.23452 -0.95329,1.5939 -1.41849,2.30315 -1.25835,1.70068 -0.86178,1.11344 -1.34986,1.82269 -1.2736,1.59391 -1.50238,1.94471 -1.23547,1.39562 -1.02193,1.03719 -0.99142,1.05243 -0.91516,0.87703 -1.52527,1.3041 -1.80744,1.25835 -1.22784,0.67111 -2.58533,1.1287 -2.41755,0.49571 -1.97522,0.18303 -2.29552,-0.061 -2.63872,-0.3203 -2.15825,-0.63299 -1.68542,-0.56435 -1.7388,-0.70925 -1.95997,-0.755 -1.83795,-0.63299 -1.63966,-0.41945 -1.92184,-0.40419 -1.76168,-0.12965 -3.09629,-0.0839 -2.76074,0.0839 -3.67589,0.71688 -3.355588,1.08294 -3.942815,1.56339 -2.295525,0.77026 -2.341288,0.51097 -1.616781,0.22879 -2.943765,0.0229 -2.798865,-0.63298 -3.073414,-1.38037 -2.03623,-1.46425 -2.859876,-2.34891 -1.822696,-1.90659 -1.876079,-2.01335 -2.661589,-3.32508 -2.463308,-3.16493 -2.112494,-3.16493 -1.517639,-2.58533 -1.471885,-2.64634 -1.456629,-2.88275 -1.159204,-2.73786 -1.929463,-4.98762 -1.510014,-5.0105 -0.533842,-2.59296 -0.533844,-2.73022 -0.327933,-1.92947 -0.343186,-2.22689 -0.266919,-2.71497 -0.129649,-6.88658 0.289801,-2.21164 0.396568,-2.70735 0.495713,-2.05911 0.640612,-2.27265 0.793139,-2.4633 0.732128,-1.51764 0.846524,-1.93709 1.220213,-2.16588 0.762633,-1.15921 1.456631,-2.07436 1.189707,-1.34223 1.166831,-1.30411 z"
       id="path4" /><path
       style="display:inline;opacity:1;fill:#000000;fill-opacity:1;stroke:#000000;stroke-width:0.264583;stroke-opacity:1"
       d="m 106.76869,109.36546 -0.21353,-1.93328 0.0763,-2.0286 0.39657,-2.21164 0.66349,-2.53194 0.77026,-1.677797 1.32698,-2.806491 1.4185,-2.173504 1.39562,-1.906585 1.95234,-2.08199 1.51764,-1.334609 2.07437,-1.624409 2.04385,-1.281224 2.63109,-1.43375 1.87608,-0.816018 1.78456,-0.686371 2.75311,-0.755007 2.37941,-0.472832 1.63204,-0.03051 0.19066,1.113446 -0.0152,2.943764 -0.18304,1.471883 -0.21354,1.220213 -0.47283,1.944717 -0.51096,1.494761 -0.71688,1.784564 -0.73213,1.517639 -0.83889,1.418498 -0.81602,1.296476 -1.18971,1.662542 -0.96854,1.052444 -0.8389,0.95329 -1.66254,1.62441 -1.2736,1.0448 -1.39562,0.96092 -1.42612,0.8694 -2.143,1.14395 -1.54815,0.73213 -2.57007,0.89228 -1.97523,0.49572 -1.95996,0.2898 -2.55483,-0.008 h -0.64061 z"
       id="path5" /></g></svg>
