<?xml version="1.0" encoding="UTF-8" standalone="no"?>
<!-- Created with Inkscape (http://www.inkscape.org/) -->

<svg
   width="135.80693mm"
   height="135.89722mm"
   viewBox="0 0 135.80693 135.89722"
   version="1.1"
   id="svg2"
   inkscape:version="1.3.2 (091e20e, 2023-11-25, custom)"
   sodipodi:docname="A2.svg"
   xml:space="preserve"
   xmlns:inkscape="http://www.inkscape.org/namespaces/inkscape"
   xmlns:sodipodi="http://sodipodi.sourceforge.net/DTD/sodipodi-0.dtd"
   xmlns="http://www.w3.org/2000/svg"
   xmlns:svg="http://www.w3.org/2000/svg"><sodipodi:namedview
     id="namedview1"
     pagecolor="#ffffff"
     bordercolor="#000000"
     borderopacity="0.25"
     inkscape:showpageshadow="2"
     inkscape:pageopacity="0.0"
     inkscape:pagecheckerboard="0"
     inkscape:deskcolor="#d1d1d1"
     inkscape:document-units="mm"
     inkscape:zoom="1.4142136"
     inkscape:cx="125.865"
     inkscape:cy="292.38865"
     inkscape:window-width="2560"
     inkscape:window-height="1494"
     inkscape:window-x="-11"
     inkscape:window-y="-11"
     inkscape:window-maximized="1"
     inkscape:current-layer="layer1"
     showguides="false" /><defs
     id="defs1"><inkscape:path-effect
       effect="bspline"
       id="path-effect9"
       is_visible="true"
       lpeversion="1.3"
       weight="33.333333"
       steps="2"
       helper_size="0"
       apply_no_weight="true"
       apply_with_weight="true"
       only_selected="false"
       uniform="false" /><inkscape:path-effect
       effect="bspline"
       id="path-effect9-8"
       is_visible="true"
       lpeversion="1.3"
       weight="33.333333"
       steps="2"
       helper_size="0"
       apply_no_weight="true"
       apply_with_weight="true"
       only_selected="false"
       uniform="false" /><inkscape:path-effect
       effect="bspline"
       id="path-effect9-8-9"
       is_visible="true"
       lpeversion="1.3"
       weight="33.333333"
       steps="2"
       helper_size="0"
       apply_no_weight="true"
       apply_with_weight="true"
       only_selected="false"
       uniform="false" /><inkscape:path-effect
       effect="bspline"
       id="path-effect9-8-9-5"
       is_visible="true"
       lpeversion="1.3"
       weight="33.333333"
       steps="2"
       helper_size="0"
       apply_no_weight="true"
       apply_with_weight="true"
       only_selected="false"
       uniform="false" /><inkscape:path-effect
       effect="bspline"
       id="path-effect9-8-9-8"
       is_visible="true"
       lpeversion="1.3"
       weight="33.333333"
       steps="2"
       helper_size="0"
       apply_no_weight="true"
       apply_with_weight="true"
       only_selected="false"
       uniform="false" /><inkscape:path-effect
       effect="bspline"
       id="path-effect9-8-4"
       is_visible="true"
       lpeversion="1.3"
       weight="33.333333"
       steps="2"
       helper_size="0"
       apply_no_weight="true"
       apply_with_weight="true"
       only_selected="false"
       uniform="false" /><inkscape:path-effect
       effect="bspline"
       id="path-effect9-8-9-5-6"
       is_visible="true"
       lpeversion="1.3"
       weight="33.333333"
       steps="2"
       helper_size="0"
       apply_no_weight="true"
       apply_with_weight="true"
       only_selected="false"
       uniform="false" /><inkscape:path-effect
       effect="bspline"
       id="path-effect9-4"
       is_visible="true"
       lpeversion="1.3"
       weight="33.333333"
       steps="2"
       helper_size="0"
       apply_no_weight="true"
       apply_with_weight="true"
       only_selected="false"
       uniform="false" /></defs><g
     inkscape:label="Capa 2 - Negre"
     inkscape:groupmode="layer"
     id="layer1"
     style="display:inline"
     transform="translate(-31.895152,-87.320526)"><path
       id="path12"
       style="display:inline;fill:#000000;fill-opacity:1;stroke-width:0.264583"
       d="m 88.240544,204.25728 -1.292427,0.005 -7.519955,-0.004 v 0.0455 h 0.0016 c 5.4e-5,8.2e-4 -1.13e-4,2.6e-4 0.01343,0.23565 0.01438,0.24986 0.04316,0.74948 0.127641,1.23662 0.08448,0.48713 0.224624,0.96204 0.406177,1.60197 0.181553,0.63992 0.404722,1.44495 0.67076,2.21071 0.266039,0.76577 0.57529,1.4919 0.972551,2.28462 0.397259,0.79272 0.882178,1.65218 1.309997,2.33526 0.42782,0.68307 0.79852,1.18959 0.98547,1.44125 0.18695,0.25166 0.190472,0.24829 0.364835,-0.005 0.174364,-0.25345 0.519478,-0.75678 0.958081,-1.5477 0.438604,-0.79093 0.970454,-1.86961 1.425236,-2.98949 0.454784,-1.11988 0.832242,-2.28112 1.082105,-3.42976 0.249863,-1.14864 0.37231,-2.28443 0.494543,-3.42046 z"
       inkscape:label="path9" /><path
       style="opacity:1;fill:#000000;fill-opacity:1;stroke-width:0.264583"
       d="m 91.083552,204.25726 h 7.484975 l -0.03236,18.96049 -0.749575,-0.0216 -1.429046,-0.13482 -1.515332,-0.31277 -1.41287,-0.47994 -1.019207,-0.42063 -1.466797,-0.63094 -1.526114,-0.86821 -1.499153,-0.92214 -1.623181,-1.27266 -0.10246,-0.11325 0.657899,-0.83586 1.132454,-1.62318 0.905962,-1.5369 0.582404,-1.59622 0.512302,-1.25648 0.426016,-1.56926 0.474554,-2.05998 0.188741,-1.33199 z"
       id="path10" /><path
       style="fill:#000000;fill-opacity:1;stroke-width:0.264583"
       d="m 108.63041,204.25694 h -7.48497 l 0.0324,18.96049 0.74957,-0.0216 1.42905,-0.13482 1.51533,-0.31277 1.41287,-0.47994 1.01921,-0.42063 1.46679,-0.63094 1.52612,-0.86821 1.49915,-0.92214 1.62318,-1.27266 0.10246,-0.11325 -0.6579,-0.83586 -1.13245,-1.62318 -0.90596,-1.5369 -0.58241,-1.59622 -0.5123,-1.25648 -0.42602,-1.56926 -0.47455,-2.05998 -0.18874,-1.33199 z"
       id="path10-0"
       inkscape:label="path11" /><path
       id="path12-9"
       style="display:inline;fill:#000000;fill-opacity:1;stroke-width:0.264583"
       d="m 111.37334,204.24059 1.29243,0.005 7.51996,-0.004 v 0.0455 h -0.002 c -6e-5,8.2e-4 1.1e-4,2.6e-4 -0.0134,0.23565 -0.0144,0.24986 -0.0432,0.74948 -0.12765,1.23662 -0.0845,0.48713 -0.22462,0.96204 -0.40617,1.60197 -0.18156,0.63992 -0.40472,1.44495 -0.67076,2.21071 -0.26604,0.76577 -0.57529,1.4919 -0.97255,2.28462 -0.39726,0.79272 -0.88218,1.65218 -1.31,2.33526 -0.42782,0.68307 -0.79852,1.18959 -0.98547,1.44125 -0.18695,0.25166 -0.19047,0.24829 -0.36484,-0.005 -0.17436,-0.25345 -0.51947,-0.75678 -0.95808,-1.5477 -0.4386,-0.79093 -0.97045,-1.86961 -1.42523,-2.98949 -0.45479,-1.11988 -0.83224,-2.28112 -1.08211,-3.42976 -0.24986,-1.14864 -0.37231,-2.28443 -0.49454,-3.42046 z"
       inkscape:label="path12" /><path
       id="path12-9-2"
       style="display:inline;fill:#000000;fill-opacity:1;stroke-width:0.264583"
       d="m 111.43658,201.58989 1.29243,-0.005 7.51996,0.004 v -0.0455 h -0.002 c -6e-5,-8.2e-4 1.1e-4,-2.6e-4 -0.0134,-0.23565 -0.0144,-0.24986 -0.0432,-0.74948 -0.12765,-1.23662 -0.0845,-0.48713 -0.22462,-0.96204 -0.40617,-1.60197 -0.18156,-0.63992 -0.40472,-1.44495 -0.67076,-2.21071 -0.26604,-0.76577 -0.57529,-1.4919 -0.97255,-2.28462 -0.39726,-0.79272 -0.88218,-1.65218 -1.31,-2.33526 -0.42782,-0.68307 -0.79852,-1.18959 -0.98547,-1.44125 -0.18695,-0.25166 -0.19047,-0.24829 -0.36484,0.005 -0.17436,0.25345 -0.51947,0.75678 -0.95808,1.5477 -0.4386,0.79093 -0.97045,1.86961 -1.42523,2.98949 -0.45479,1.11988 -0.83224,2.28112 -1.08211,3.42976 -0.24986,1.14864 -0.37231,2.28443 -0.49454,3.42046 z"
       inkscape:label="path13" /><path
       style="display:inline;fill:#000000;fill-opacity:1;stroke-width:0.264583"
       d="m 108.69365,201.57354 h -7.48497 l 0.0324,-18.96049 0.74957,0.0216 1.42905,0.13482 1.51533,0.31277 1.41287,0.47994 1.01921,0.42063 1.46679,0.63094 1.52612,0.86821 1.49915,0.92214 1.62318,1.27266 0.10246,0.11325 -0.6579,0.83586 -1.13245,1.62318 -0.90596,1.5369 -0.58241,1.59622 -0.5123,1.25648 -0.42602,1.56926 -0.47455,2.05998 -0.18874,1.33199 z"
       id="path10-0-4"
       inkscape:label="path14" /><path
       style="display:inline;fill:#000000;fill-opacity:1;stroke-width:0.264583"
       d="m 91.146782,201.57322 h 7.484973 l -0.0324,-18.96049 -0.74957,0.0216 -1.42905,0.13482 -1.51533,0.31277 -1.41287,0.47994 -1.01921,0.42063 -1.466793,0.63094 -1.52612,0.86821 -1.49915,0.92214 -1.62318,1.27266 -0.10246,0.11325 0.6579,0.83586 1.13245,1.62318 0.90596,1.5369 0.58241,1.59622 0.5123,1.25648 0.42602,1.56926 0.47455,2.05998 0.18874,1.33199 z"
       id="path10-5"
       inkscape:label="path15" /><path
       id="path12-8"
       style="display:inline;fill:#000000;fill-opacity:1;stroke-width:0.264583"
       d="m 88.303772,201.5732 -1.29243,-0.005 -7.51995,0.004 v -0.0455 h 0.002 c 5e-5,-8.2e-4 -1.1e-4,-2.6e-4 0.0134,-0.23565 0.0144,-0.24986 0.0432,-0.74948 0.12764,-1.23662 0.0845,-0.48713 0.22462,-0.96204 0.40618,-1.60197 0.18155,-0.63992 0.40472,-1.44495 0.67076,-2.21071 0.26604,-0.76577 0.57529,-1.4919 0.97255,-2.28462 0.39726,-0.79272 0.88218,-1.65218 1.30999,-2.33526 0.42782,-0.68307 0.79852,-1.18959 0.98547,-1.44125 0.18695,-0.25166 0.19048,-0.24829 0.36484,0.005 0.17436,0.25345 0.51948,0.75678 0.95808,1.5477 0.4386,0.79093 0.97045,1.86961 1.42524,2.98949 0.45478,1.11988 0.83224,2.28112 1.0821,3.42976 0.24986,1.14864 0.37231,2.28443 0.49454,3.42046 z"
       inkscape:label="path16" /><path
       id="path12-1"
       style="display:inline;fill:#000000;fill-opacity:1;stroke-width:0.264583"
       d="m 88.253855,108.96507 -1.29243,0.005 -7.519947,-0.004 v 0.0455 h 0.002 c 5e-5,8.2e-4 -1.2e-4,2.6e-4 0.0134,0.23565 0.0144,0.24986 0.0432,0.74948 0.12764,1.23662 0.0845,0.48713 0.22462,0.96204 0.40617,1.60197 0.18156,0.63992 0.40473,1.44495 0.67076,2.21071 0.26604,0.76577 0.575287,1.4919 0.972547,2.28462 0.39726,0.79272 0.88218,1.65218 1.31,2.33526 0.42782,0.68307 0.79852,1.18959 0.98547,1.44125 0.18695,0.25166 0.19047,0.24829 0.36484,-0.005 0.17436,-0.25345 0.51947,-0.75678 0.95808,-1.5477 0.4386,-0.79093 0.97045,-1.86961 1.42523,-2.98949 0.45479,-1.11988 0.83224,-2.28112 1.08211,-3.42976 0.24986,-1.14864 0.37231,-2.28443 0.49454,-3.42046 z"
       inkscape:label="path17" /><path
       style="display:inline;fill:#000000;fill-opacity:1;stroke-width:0.264583"
       d="m 91.096865,108.96505 h 7.48497 l -0.0324,18.96049 -0.74957,-0.0216 -1.42905,-0.13482 -1.51533,-0.31277 -1.41287,-0.47994 -1.01921,-0.42063 -1.4668,-0.63094 -1.52611,-0.86821 -1.49915,-0.92214 -1.62318,-1.27266 -0.10246,-0.11325 0.65789,-0.83586 1.13246,-1.62318 0.90596,-1.5369 0.5824,-1.59622 0.51231,-1.25648 0.42601,-1.56926 0.47456,-2.05998 0.18874,-1.33199 z"
       id="path10-50"
       inkscape:label="path18" /><path
       style="display:inline;fill:#000000;fill-opacity:1;stroke-width:0.264583"
       d="m 108.64371,108.96473 h -7.48497 l 0.0324,18.96049 0.74957,-0.0216 1.42905,-0.13482 1.51533,-0.31277 1.41287,-0.47994 1.01921,-0.42063 1.46679,-0.63094 1.52612,-0.86821 1.49915,-0.92214 1.62318,-1.27266 0.10246,-0.11325 -0.6579,-0.83586 -1.13245,-1.62318 -0.90596,-1.5369 -0.58241,-1.59622 -0.5123,-1.25648 -0.42602,-1.56926 -0.47455,-2.05998 -0.18874,-1.33199 z"
       id="path10-0-8"
       inkscape:label="path19" /><path
       id="path12-9-26"
       style="display:inline;fill:#000000;fill-opacity:1;stroke-width:0.264583"
       d="m 111.38664,108.94838 1.29243,0.005 7.51996,-0.004 v 0.0455 h -0.002 c -6e-5,8.2e-4 1.1e-4,2.6e-4 -0.0134,0.23565 -0.0144,0.24986 -0.0432,0.74948 -0.12765,1.23662 -0.0845,0.48713 -0.22462,0.96204 -0.40617,1.60197 -0.18156,0.63992 -0.40472,1.44495 -0.67076,2.21071 -0.26604,0.76577 -0.57529,1.4919 -0.97255,2.28462 -0.39726,0.79272 -0.88218,1.65218 -1.31,2.33526 -0.42782,0.68307 -0.79852,1.18959 -0.98547,1.44125 -0.18695,0.25166 -0.19047,0.24829 -0.36484,-0.005 -0.17436,-0.25345 -0.51947,-0.75678 -0.95808,-1.5477 -0.4386,-0.79093 -0.97045,-1.86961 -1.42523,-2.98949 -0.45479,-1.11988 -0.83224,-2.28112 -1.08211,-3.42976 -0.24986,-1.14864 -0.37231,-2.28443 -0.49454,-3.42046 z"
       inkscape:label="path20" /><path
       id="path12-9-2-2"
       style="display:inline;fill:#000000;fill-opacity:1;stroke-width:0.264583"
       d="m 111.44988,106.29768 1.29243,-0.005 7.51996,0.004 v -0.0455 h -0.002 c -6e-5,-8.2e-4 1.1e-4,-2.6e-4 -0.0134,-0.23565 -0.0144,-0.24986 -0.0432,-0.74948 -0.12765,-1.23662 -0.0845,-0.48713 -0.22462,-0.96204 -0.40617,-1.60197 -0.18156,-0.63992 -0.40472,-1.44495 -0.67076,-2.21071 -0.26604,-0.76576 -0.57529,-1.491894 -0.97255,-2.284614 -0.39726,-0.79272 -0.88218,-1.65218 -1.31,-2.33526 -0.42782,-0.68307 -0.79852,-1.18959 -0.98547,-1.44125 -0.18695,-0.25166 -0.19047,-0.24829 -0.36484,0.005 -0.17436,0.25345 -0.51947,0.75678 -0.95808,1.5477 -0.4386,0.79093 -0.97045,1.86961 -1.42523,2.98949 -0.45479,1.119874 -0.83224,2.281114 -1.08211,3.429754 -0.24986,1.14864 -0.37231,2.28443 -0.49454,3.42046 z"
       inkscape:label="path21" /><path
       style="display:inline;fill:#000000;fill-opacity:1;stroke-width:0.264583"
       d="m 108.70695,106.28133 h -7.48497 l 0.0324,-18.960484 0.74957,0.0216 1.42905,0.13482 1.51533,0.31277 1.41287,0.47994 1.01921,0.42063 1.46679,0.63094 1.52612,0.86821 1.49915,0.92214 1.62318,1.27266 0.10246,0.11325 -0.6579,0.83586 -1.13245,1.62318 -0.90596,1.5369 -0.58241,1.59622 -0.5123,1.25648 -0.42602,1.569254 -0.47455,2.05998 -0.18874,1.33199 z"
       id="path10-0-4-6"
       inkscape:label="path22" /><path
       style="display:inline;fill:#000000;fill-opacity:1;stroke-width:0.264583"
       d="m 91.160095,106.28101 h 7.48497 l -0.0324,-18.960484 -0.74957,0.0216 -1.42905,0.13482 -1.51533,0.31277 -1.41287,0.47994 -1.01921,0.42063 -1.4668,0.63094 -1.52612,0.86821 -1.49915,0.92214 -1.62318,1.27266 -0.10246,0.11325 0.6579,0.83586 1.13245,1.62318 0.90596,1.5369 0.58241,1.59622 0.5123,1.25648 0.42602,1.569254 0.47455,2.05998 0.18874,1.33199 z"
       id="path10-5-0"
       inkscape:label="path23" /><path
       style="display:inline;opacity:1;fill:#000000;stroke-width:0.264583"
       d="m 44.204059,101.8145 13.361339,13.23932 c 0,0 -4.962202,5.20624 -7.443303,7.80937 -2.216767,2.21676 -4.433443,4.43344 -6.650165,6.65016 -1.759177,1.83036 -3.518283,3.66064 -5.277424,5.49096 -1.062625,1.688 -2.125205,3.37593 -3.187808,5.06389 -0.742313,1.93204 -1.484593,3.86401 -2.22689,5.79601 -0.238963,1.20499 -0.477917,2.40993 -0.716875,3.61489 -0.04067,1.14397 -0.08135,2.2879 -0.122021,3.43185 -0.01527,0.93043 -0.03051,1.86082 -0.04576,2.79124 0.147447,1.09821 0.294886,2.19638 0.442327,3.29457 0.284724,1.15923 0.569434,2.31841 0.85415,3.47761 0.518601,1.40836 1.037182,2.81666 1.555773,4.22499 0.640625,1.0372 1.281224,2.07436 1.921836,3.11154 0.818576,1.10839 1.63712,2.21673 2.45568,3.32509 0.772818,0.76773 1.545603,1.53543 2.318406,2.30315 0.971105,0.80333 1.942174,1.60662 2.913261,2.40992 0.986358,0.61012 1.972677,1.22022 2.959018,1.83032 1.286332,0.5847 2.572615,1.16938 3.858924,1.75406 1.39819,0.44742 2.796323,0.89482 4.194484,1.34224 1.687997,0.17795 3.375925,0.35589 5.063887,0.53384 1.418526,-0.061 2.836997,-0.12202 4.255495,-0.18303 1.159227,-0.21355 2.318406,-0.42708 3.477609,-0.64061 0.894842,-0.2288 2.68447,-0.64824 2.68447,-0.64824 l -1.654915,1.64729 -24.909277,25.09722 2.200195,2.1247 53.311573,-53.29001 53.325332,53.33223 2.16588,-2.24214 -13.34609,-13.4071 14.38046,-14.2466 3.26794,-3.32187 2.1247,-2.43746 1.607,-2.32962 0.97067,-1.89821 0.98146,-2.25412 0.77654,-1.74721 0.93832,-3.24637 0.52848,-3.35422 0.18335,-2.02763 -0.0539,-4.32489 -0.20492,-1.72564 -0.47455,-2.24334 -0.81968,-2.73945 -1.40209,-3.73171 -1.72564,-2.81495 -2.37276,-3.12773 -2.37276,-2.51297 -2.37276,-2.0492 -2.45904,-1.65014 -3.25715,-1.65015 -4.64844,-1.63936 -2.83653,-0.57162 -3.10616,-0.30198 -5.123,0.10785 -3.01987,0.52848 -2.7826,0.80889 5.24164,-5.26321 21.33165,-21.45226 -2.13538,-2.127749 L 99.830547,153.00246 46.400193,99.694097 Z"
       id="path2" /><path
       id="path12-8-8"
       style="display:inline;fill:#000000;fill-opacity:1;stroke-width:0.264583"
       d="m 88.317075,106.28099 -1.29242,-0.005 -7.519947,0.004 v -0.0455 h 0.002 c 5e-5,-8.2e-4 -1.2e-4,-2.6e-4 0.0134,-0.23565 0.0144,-0.24986 0.0432,-0.74948 0.12764,-1.23662 0.0845,-0.48713 0.22462,-0.96204 0.40618,-1.60197 0.18155,-0.63992 0.40472,-1.44495 0.67076,-2.21071 0.26604,-0.76576 0.575287,-1.491894 0.972547,-2.284614 0.39726,-0.79272 0.88218,-1.65218 1.30999,-2.33526 0.42782,-0.68307 0.79852,-1.18959 0.98547,-1.44125 0.18695,-0.25166 0.19048,-0.24829 0.36484,0.005 0.17436,0.25345 0.51948,0.75678 0.95808,1.5477 0.4386,0.79093 0.97045,1.86961 1.42524,2.98949 0.45478,1.119874 0.83224,2.281114 1.0821,3.429754 0.24986,1.14864 0.37231,2.28443 0.49454,3.42046 z"
       inkscape:label="path24" /></g><g
     inkscape:groupmode="layer"
     id="layer3"
     inkscape:label="Capa 1 - Blanc"
     style="display:inline"
     transform="translate(-101.415,-27.359352)"><path
       style="display:inline;opacity:1;fill:#ffffff;fill-opacity:1;stroke-width:0.264583"
       d="M 69.370963,127.04242 88.070739,145.68118 69.218436,164.31994 50.396642,145.86421 Z"
       id="path3"
       transform="translate(69.519853,-59.961174)" /><path
       style="display:inline;opacity:1;fill:#ffffff;fill-opacity:1;stroke-width:0.264583"
       d="m 52.074436,150.16547 12.812242,12.858 -1.586278,1.34223 -2.066734,0.74738 -2.173507,0.38132 -3.004775,-0.25167 -2.280275,-1.14395 -1.304104,-0.90753 -1.647288,-1.93709 -1.098193,-2.80649 -0.152527,-2.12012 0.381317,-2.74549 1.326984,-2.65396 z"
       id="path4"
       transform="translate(69.519853,-59.961174)" /><path
       style="display:inline;opacity:1;fill:#ffffff;fill-opacity:1;stroke-width:0.264583"
       d="m 68.043982,125.68493 -8.114421,-8.11442 -7.870378,7.7331 -8.205935,8.19069 -2.470933,2.51669 -1.921839,2.51669 -1.311727,2.21926 -1.075314,2.18113 -1.060061,2.55483 -0.60248,2.48618 -0.465207,2.85225 -0.22879,2.63871 0.22879,3.52337 0.594855,2.76073 0.686369,2.53957 0.823645,1.86846 1.792187,3.53099 1.616784,2.33366 1.487136,1.75405 2.310781,2.24215 2.707349,2.01335 3.157302,1.79219 3.18018,1.27359 3.668268,0.88466 2.402295,0.27455 4.30888,0.0381 3.942815,-0.57197 4.148728,-1.37274 4.636809,-2.43281 2.242143,-1.73118 1.95997,-1.84557 3.569123,-3.592 4.438528,-4.36226 4.949492,-4.95712 4.095342,-4.10297 -8.327958,-8.35084 -3.218313,3.14968 -2.783612,2.78361 -2.318406,2.32603 -4.964745,5.10202 -4.606306,4.53767 -2.234517,2.28028 -2.836998,-2.75311 -1.304102,1.09819 -2.257396,1.16683 -2.165879,0.55672 -2.981896,0.1449 -3.492863,-0.77026 -2.417548,-1.39562 -1.822693,-1.8837 -1.105818,-1.91421 -0.785514,-1.91421 -0.213537,-1.79219 -0.08389,-2.4023 0.49571,-2.45568 0.945666,-2.34128 0.976172,-1.16683 0.4347,-0.56435 -2.791238,-2.85987 z"
       id="path5"
       transform="translate(69.519853,-59.961174)" /><path
       style="display:inline;opacity:1;fill:#ffffff;fill-opacity:1;stroke-width:0.264583"
       d="m 111.62948,164.66454 18.68009,18.80951 18.89579,-18.98207 -18.68009,-18.63694 z"
       id="path6"
       transform="translate(69.519853,-59.961174)" /><path
       style="display:inline;opacity:1;fill:#ffffff;fill-opacity:1;stroke-width:0.264583"
       d="m 134.6829,147.31322 12.88851,12.90376 1.20496,-1.32699 1.1592,-2.85225 0.13727,-3.21831 -0.85415,-3.17255 -1.64728,-2.05911 -2.36417,-1.81507 -2.0286,-0.76264 -2.66922,-0.15252 -2.94377,0.54909 -1.75405,0.97617 z"
       id="path7"
       transform="translate(69.519853,-59.961174)" /><path
       style="display:inline;opacity:1;fill:#ffffff;fill-opacity:1;stroke-width:0.264583"
       d="m 102.00903,155.21665 8.06738,8.1968 20.40572,-20.2763 2.71789,2.80417 2.72867,-1.79035 2.80417,-0.91675 3.42972,-0.17257 2.08155,0.40984 2.1247,0.88439 2.0492,1.44523 1.89821,2.30805 0.85203,1.80114 0.56084,2.16784 0.14021,1.91977 -0.21571,2.92281 -0.62555,1.91978 -0.92753,1.53151 -1.07853,1.33737 2.71789,2.7071 -20.26551,20.1361 -0.0971,0.10245 8.38015,8.39633 18.29181,-18.42123 2.32962,-2.68553 1.84428,-3.31108 1.33738,-3.1493 0.66868,-2.7071 0.3667,-3.78563 0.11864,-2.40511 -0.0539,-3.18166 -0.74418,-3.30029 -1.12167,-3.54835 -1.45601,-3.03066 -1.70407,-2.59925 -2.2002,-2.46983 -2.73946,-2.49139 -3.60227,-2.45904 -3.49443,-1.58544 -3.41893,-1.06774 -3.53757,-0.57162 -5.42499,0.0324 -3.81798,0.71183 -4.99358,1.83349 -4.23861,2.50218 -3.90426,3.60228 -4.34647,4.22783 -3.99055,4.03369 z"
       id="path8"
       transform="translate(69.519853,-59.961174)" /></g></svg>
