<?xml version="1.0" encoding="UTF-8" standalone="no"?>
<!-- Created with Inkscape (http://www.inkscape.org/) -->

<svg
   width="179.91795mm"
   height="133.73418mm"
   viewBox="0 0 179.91795 133.73418"
   version="1.1"
   id="svg3"
   xml:space="preserve"
   inkscape:version="1.3.2 (091e20e, 2023-11-25, custom)"
   sodipodi:docname="A3.svg"
   xmlns:inkscape="http://www.inkscape.org/namespaces/inkscape"
   xmlns:sodipodi="http://sodipodi.sourceforge.net/DTD/sodipodi-0.dtd"
   xmlns="http://www.w3.org/2000/svg"
   xmlns:svg="http://www.w3.org/2000/svg"><sodipodi:namedview
     id="namedview1"
     pagecolor="#ffffff"
     bordercolor="#000000"
     borderopacity="0.25"
     inkscape:showpageshadow="2"
     inkscape:pageopacity="0.0"
     inkscape:pagecheckerboard="0"
     inkscape:deskcolor="#d1d1d1"
     inkscape:document-units="mm"
     inkscape:zoom="0.76662259"
     inkscape:cx="298.71282"
     inkscape:cy="438.93828"
     inkscape:window-width="2560"
     inkscape:window-height="1494"
     inkscape:window-x="-11"
     inkscape:window-y="-11"
     inkscape:window-maximized="1"
     inkscape:current-layer="layer1" /><defs
     id="defs1" /><g
     inkscape:label="Capa 1"
     inkscape:groupmode="layer"
     id="layer1"
     transform="translate(-47.148976,-30.93889)"><path
       style="fill:#000000"
       d="m 92.410356,164.42772 -1.461744,-0.18868 -0.525591,-0.28128 -0.525592,-0.28129 -0.487212,-0.53836 -0.487212,-0.53837 0.242271,-0.72681 0.242272,-0.72682 0.674931,-0.50391 0.674932,-0.50391 46.757839,-0.0414 46.75784,-0.0414 0.6579,0.76484 0.6579,0.76484 -0.16784,0.69037 -0.16785,0.69037 -0.60357,0.61378 -0.60358,0.61377 -1.03385,0.23981 -1.03385,0.2398 -44.05313,-0.0284 -44.05312,-0.0284 z m 55.746274,-16.71888 -0.4798,-0.26852 -1.56851,0.18205 -1.56851,0.18204 -0.0287,-6.7067 -0.0287,-6.70671 -0.16972,-3.64837 -0.16972,-3.64837 1.98438,0.0765 1.98437,0.0765 0.0564,3.83646 0.0565,3.83645 0.28473,6.44979 0.28473,6.44979 -0.0788,0.0788 -0.0788,0.0788 z m -95.046758,-7.43086 0.176306,-7.47448 -0.221754,-0.32085 -0.221755,-0.32085 -2.768617,-0.076 -2.768616,-0.076 -0.07823,-1.78594 -0.07823,-1.78594 h 7.51675 7.516751 l 0.168255,1.22756 0.168254,1.22755 v 0.72832 0.72832 l -2.772536,-0.1415 -2.772536,-0.1415 0.125809,7.84292 0.12581,7.84292 h -2.145979 -2.145979 z m 13.228265,6.99093 -1.07563,-0.50518 -0.985004,-0.86484 -0.985003,-0.86484 -0.717491,-1.22049 -0.717491,-1.22048 0.0019,-2.38125 0.0019,-2.38125 0.57023,-1.05833 0.57023,-1.05834 0.883081,-0.84557 0.883081,-0.84557 1.552989,-0.70966 1.55299,-0.70966 1.512962,0.13719 1.512962,0.13719 0.850479,0.4398 0.850479,0.4398 1.082664,1.11053 1.082665,1.11054 0.377084,0.89535 0.377084,0.89536 0.152299,1.81662 0.152299,1.81663 h -1.509047 -1.509046 l -1.770474,0.27231 -1.770473,0.27231 -1.664203,-0.22996 -1.664202,-0.22997 -0.153675,0.24865 -0.153674,0.24865 0.518756,0.70119 0.518755,0.70119 0.753086,0.36879 0.753085,0.36878 1.12324,0.1266 1.12324,0.12661 1.159977,-0.56154 1.159977,-0.56153 h 0.259643 0.259643 l 1.028693,1.05348 1.028692,1.05347 -0.1151,0.10613 -0.1151,0.10614 -1.984375,0.99777 -1.984375,0.99777 -1.852083,0.10239 -1.852083,0.10239 z m 5.441256,-8.80219 v -0.28991 l -0.447297,-0.75721 -0.447297,-0.75722 -0.748322,-0.30996 -0.748321,-0.30997 -1.119486,0.15013 -1.119485,0.15012 -0.727605,0.81426 -0.727604,0.81426 v 0.3927 0.3927 h 3.042708 3.042709 z m 19.739765,7.89835 -0.165375,-1.39074 0.01874,-8.06979 0.01874,-8.06979 0.145388,-0.8599 0.145387,-0.85989 h 1.836956 1.836955 l -0.08046,3.57232 -0.08046,3.57232 0.07182,-4.5e-4 0.07182,-4.4e-4 0.995299,-0.65866 0.995299,-0.65866 1.247953,-0.17105 1.247953,-0.17105 1.173837,0.44829 1.17384,0.44829 0.92526,1.02415 0.92525,1.02415 0.28072,1.01091 0.28071,1.01092 0.001,5.02708 10e-4,5.02708 h -2.00911 -2.00912 l 0.0909,-4.95398 0.0909,-4.95399 -0.73375,-0.73455 -0.733744,-0.73456 -1.193825,0.0256 -1.193825,0.0256 -0.784411,0.75151 -0.784411,0.75151 -0.0024,4.91144 -0.0024,4.91143 -1.818977,0.0678 -1.818976,0.0678 z m 63.736272,1.03687 -0.79375,-0.36307 -0.97722,-1.08261 -0.97722,-1.08261 -0.47097,-0.8757 -0.47097,-0.8757 -0.007,-5.02709 -0.007,-5.02708 1.33995,-0.0783 1.33995,-0.0783 0.71057,0.27016 0.71057,0.27016 v 4.51649 4.51649 l 0.63868,0.63867 0.63867,0.63868 0.68938,0.17302 0.68938,0.17302 0.79758,-0.33037 0.79758,-0.33037 0.5202,-0.66132 0.5202,-0.66133 v -4.57281 -4.57282 l 1.85268,-0.0879 1.85268,-0.0879 0.001,5.55625 10e-4,5.55625 0.16488,1.74536 0.16488,1.74537 -1.54698,0.15966 -1.54698,0.15966 -0.11263,-0.11264 -0.11264,-0.11264 -0.0285,-0.79959 -0.0285,-0.7996 -0.13815,-6e-4 -0.13816,-6.1e-4 -1.00138,0.82543 -1.00139,0.82543 -1.63858,0.10688 -1.63859,0.10689 z m 15.34642,-0.0663 -0.79316,-0.41356 -0.4907,-0.44408 -0.49069,-0.44408 -0.36979,-0.71509 -0.36979,-0.71509 v -4.24647 -4.24647 h -1.19062 -1.19063 v -1.5875 -1.5875 h 0.80112 0.80112 l -0.17252,-1.68387 -0.17252,-1.68387 0.27266,-0.16851 0.27266,-0.16852 1.67843,-0.2368 1.67843,-0.2368 0.2324,0.21816 0.23241,0.21815 0.13304,1.85931 0.13303,1.8593 1.61893,0.0779 1.61894,0.0779 0.0794,1.52136 0.0793,1.52135 h -1.18218 -1.18219 l -0.41852,0.1606 -0.41851,0.1606 v 3.40517 3.40518 l 0.65953,0.43214 0.65953,0.43214 0.6914,-0.17353 0.6914,-0.17353 0.63345,0.41505 0.63344,0.41504 v 0.59649 0.59649 l -0.43146,0.61599 -0.43145,0.61598 -0.88297,0.36893 -0.88296,0.36893 -0.86839,-0.002 -0.8684,-0.002 z m 7.18101,-2.62588 -0.16773,-2.91042 -0.001,-4.43177 -10e-4,-4.43177 h 1.84277 1.84278 l 0.27389,0.51177 0.27389,0.51178 v 6.83041 6.83041 h -1.94773 -1.94773 z m 22.367,-4.38804 -0.0787,-7.38592 h 1.86764 1.86763 v 0.79375 0.79375 h 0.15518 0.15519 l 1.19832,-0.8599 1.19833,-0.85989 1.64951,0.004 1.64951,0.004 0.97614,0.74454 0.97614,0.74454 0.7172,1.08372 0.71719,1.08371 0.0947,4.98086 0.0947,4.98087 -0.14866,0.59474 -0.14865,0.59474 -1.86426,-0.0879 -1.86426,-0.0879 v -4.72049 -4.72049 l -0.70939,-0.84305 -0.70938,-0.84306 -1.17384,0.13231 -1.17384,0.13231 -0.64678,0.64677 -0.64677,0.64677 -0.0497,4.84997 -0.0497,4.84996 -1.98741,0.0661 -1.9874,0.0661 z m 17.67952,6.81148 -1.71979,-0.63608 -0.7276,-0.29182 -0.7276,-0.29182 0.0118,-0.20499 0.0119,-0.20498 1.14277,-1.27477 1.14278,-1.27477 0.89113,0.54193 0.89113,0.54193 1.32768,0.29295 1.32767,0.29296 0.73438,-0.28375 0.73439,-0.28375 0.16169,-0.42136 0.16169,-0.42136 -0.36691,-0.36617 -0.36691,-0.36617 -2.38125,-0.68816 -2.38125,-0.68817 -0.75122,-0.71109 -0.75123,-0.71109 -0.37325,-0.71446 -0.37325,-0.71447 9.8e-4,-1.00532 9.9e-4,-1.00533 0.51943,-0.85189 0.51942,-0.8519 1.08643,-0.78701 1.08644,-0.78701 1.47032,-0.30523 1.47032,-0.30524 1.64427,0.53977 1.64427,0.53978 0.98878,0.58339 0.98878,0.5834 -0.6605,0.55639 -0.6605,0.55638 -0.42602,0.85935 -0.42602,0.85934 -0.98567,-0.64311 -0.98568,-0.64312 -0.9288,-0.16763 -0.92879,-0.16764 -0.73163,0.27817 -0.73164,0.27816 -0.16227,0.42288 -0.16227,0.42288 0.49978,0.48114 0.49978,0.48113 2.29912,0.69109 2.29911,0.69108 0.84572,0.71162 0.84571,0.71162 0.34947,0.8364 0.34947,0.8364 -0.26758,0.96913 -0.26759,0.96912 -0.84546,0.96294 -0.84547,0.96294 -1.05833,0.46613 -1.05833,0.46613 -1.5875,0.15961 -1.5875,0.15961 z m -136.695554,-0.0281 -0.832024,-0.36202 -1.106759,-0.99989 -1.106758,-0.99989 -0.688079,-1.33971 -0.688079,-1.33971 0.0089,-1.77116 0.0089,-1.77117 0.716552,-1.46458 0.716552,-1.46458 0.967246,-0.79728 0.967246,-0.79729 1.173111,-0.55143 1.173111,-0.55142 1.613137,-0.0228 1.613138,-0.0228 0.926041,0.4765 0.926042,0.47651 1.129079,0.80543 1.129079,0.80543 -0.802388,0.81174 -0.802389,0.81174 -0.362597,0.51698 -0.362597,0.51698 -0.961133,-0.84388 -0.961134,-0.84389 -0.658345,-0.16524 -0.658345,-0.16523 -0.875068,0.16416 -0.875068,0.16417 -0.852526,0.87958 -0.852527,0.87959 -0.148185,0.91316 -0.148185,0.91315 0.285799,1.06138 0.285799,1.06138 0.815343,0.78115 0.815343,0.78114 h 1.509618 1.509617 l 0.780444,-0.56851 0.780443,-0.56851 1.253171,0.96539 1.25317,0.96538 0.01127,0.18043 0.01127,0.18042 -0.727604,0.51782 -0.727604,0.51782 -1.62023,0.82311 -1.62023,0.82311 -1.55477,-0.0103 -1.55477,-0.0104 z m 35.405934,0.12033 -0.88025,-0.20825 -1.71233,-0.86913 -1.71233,-0.86914 -0.10791,-0.17459 -0.1079,-0.1746 1.26325,-1.34554 1.26326,-1.34553 1.58704,0.78661 1.58705,0.78661 1.43769,0.13457 1.43769,0.13457 0.85279,-0.53733 0.8528,-0.53734 0.17175,-0.68431 0.17175,-0.68432 -0.61095,-0.65032 -0.61095,-0.65033 -1.86881,-0.53008 -1.8688,-0.53009 -1.00864,-0.2757 -1.00863,-0.27569 -1.06105,-0.9586 -1.06104,-0.95859 -0.53894,-1.05641 -0.53894,-1.05641 0.11761,-1.4183 0.11762,-1.41831 0.7794,-1.10895 0.77939,-1.10894 1.295,-0.80001 1.29501,-0.80001 h 2.79785 2.79786 l 1.71979,0.9498 1.71979,0.9498 v 0.25367 0.25367 l -1.11127,1.30007 -1.11126,1.30007 -1.07632,-0.60492 -1.07631,-0.60492 -1.40172,-0.14467 -1.40172,-0.14467 -0.83998,0.43437 -0.83998,0.43437 -0.4213,0.64299 -0.42131,0.643 0.15979,0.50345 0.15978,0.50345 0.85434,0.43773 0.85435,0.43772 2.64583,0.6634 2.64583,0.6634 1.04564,0.72714 1.04565,0.72715 0.5324,0.91161 0.53241,0.91161 v 1.36321 1.36322 l -0.49261,1.09242 -0.49262,1.09243 -1.29594,0.8316 -1.29595,0.83161 -0.98011,0.34993 -0.98012,0.34994 -1.85208,-0.0155 -1.85208,-0.0155 z m 16.0938,-0.14414 -1.19063,-0.3697 -0.98024,-0.81192 -0.98025,-0.81191 -0.8614,-1.74976 -0.8614,-1.74975 -0.0104,-1.88453 -0.0104,-1.88452 0.87445,-1.36308 0.87445,-1.36309 0.9159,-0.69859 0.9159,-0.69859 1.23184,-0.5449 1.23183,-0.5449 1.66364,0.13354 1.66364,0.13354 1.13501,0.67026 1.13501,0.67025 0.84634,0.88241 0.84635,0.88242 0.55521,1.25703 0.55522,1.25703 0.15131,1.27757 0.15131,1.27757 -1.2157,2.49248 -1.2157,2.49248 -0.006,-0.36213 -0.006,-0.36213 -0.95296,0.72686 -0.95296,0.72685 -1.20576,0.36288 -1.20576,0.36288 -0.95013,-0.0184 -0.95014,-0.0184 z m 4.32968,-3.94894 0.70279,-0.65132 0.26189,-0.68882 0.26189,-0.68882 v -1.18654 -1.18654 l -0.39159,-0.75724 -0.39159,-0.75725 -0.70243,-0.55253 -0.70242,-0.55253 h -1.01021 -1.0102 l -0.6804,0.31001 -0.68041,0.31002 -0.56677,0.91704 -0.56676,0.91705 v 1.1192 1.1192 l 0.52047,1.00293 0.52048,1.00294 0.90856,0.48726 0.90855,0.48727 h 0.95768 0.95768 z m 51.06677,3.58809 -1.62125,-0.76698 -0.94441,-1.23687 -0.94442,-1.23686 -0.31295,-0.94826 -0.31295,-0.94826 0.15484,-1.65815 0.15484,-1.65815 0.42119,-1.01193 0.4212,-1.01193 1.11196,-1.14631 1.11195,-1.14631 1.05833,-0.5637 1.05834,-0.56369 1.71979,-0.01 1.71979,-0.01 1.19063,0.70588 1.19062,0.70588 0.96958,1.01391 0.96958,1.01391 0.61347,1.19063 0.61346,1.19062 0.004,1.61934 0.004,1.61935 -1.32292,1.92213 -1.32291,1.92213 -0.79375,0.58917 -0.79375,0.58918 -0.89938,0.30112 -0.89938,0.30112 -1.34958,-2.1e-4 -1.34958,-2e-4 z m 4.76586,-3.22471 0.70242,-0.55253 0.39159,-0.75725 0.39159,-0.75725 v -1.22992 -1.22992 l -0.44185,-0.93112 -0.44184,-0.93112 -0.81493,-0.51058 -0.81492,-0.51058 -0.86514,0.12916 -0.86513,0.12915 -0.7725,0.6111 -0.7725,0.6111 -0.41289,0.83373 -0.41288,0.83374 v 0.99337 0.99338 l 0.6921,0.90739 0.69211,0.9074 0.82925,0.50565 0.82924,0.50565 0.69193,9.9e-4 0.69192,9.9e-4 z m -14.68876,-12.81153 -0.69623,-0.3783 -0.14778,-0.38512 -0.14779,-0.38513 0.26472,-0.95875 0.26473,-0.95875 0.62519,-0.28485 0.62519,-0.28486 0.97585,0.18307 0.97585,0.18307 0.6319,0.6319 0.6319,0.63189 v 0.65547 0.65547 l -0.76845,0.54718 -0.76845,0.54719 -0.8852,-0.0106 -0.88519,-0.0106 z m -55.72616,-11.70796 -11.70781,-0.0689 v -2.51079 -2.51079 h 3.81007 3.81007 l 0.31367,-1.38906 0.31367,-1.38906 0.55215,-1.81397 0.55216,-1.81396 1.21108,0.1566 1.21109,0.1566 6.61458,0.28264 6.61458,0.28264 6.21771,-0.15554 6.21771,-0.15554 3.175,-0.31851 3.175,-0.3185 0.26458,-0.003 0.26459,-0.003 0.94678,3.175 0.94678,3.175 3.61728,0.0736 3.61728,0.0736 0.0529,1.58004 0.0529,1.58003 0.0132,0.90311 0.0132,0.90311 -15.08125,0.0891 -15.08125,0.0891 z m -28.641142,-14.68516 -1.719791,-0.5922 -1.271586,-0.97424 -1.271585,-0.97423 -0.804759,-1.00993 -0.80476,-1.009927 -0.616014,-1.058333 -0.616014,-1.058333 -0.433263,-1.690401 -0.433264,-1.690401 -0.04394,-26.223139 -0.04394,-26.22314 0.728109,-2.073784 0.72811,-2.073784 1.072851,-1.579843 1.07285,-1.579843 1.57372,-1.158506 1.573719,-1.158507 1.514678,-0.611824 1.514678,-0.611825 h 42.068753 42.06875 l 1.8103,0.859762 1.8103,0.859761 1.64828,1.65378 1.64829,1.65378 0.70712,1.501838 0.70712,1.501837 0.39444,1.673162 0.39445,1.673163 0.004,25.812377 0.004,25.812378 -0.78562,2.152654 -0.78562,2.152655 -1.1293,1.536008 -1.1293,1.536005 -1.38433,1.24672 -1.38433,1.24671 -1.90406,0.57834 -1.90406,0.57834 -5.04929,-0.17845 -5.0493,-0.17845 -22.48958,0.0154 -22.48958,0.0154 -13.89063,0.12062 -13.890623,0.12063 z m 45.273042,-6.301178 0.77244,-0.550025 0.39288,-0.759752 0.39289,-0.759751 v -0.820029 -0.820028 l -0.39159,-0.757249 -0.39159,-0.757249 -0.70243,-0.552529 -0.70242,-0.552528 h -0.92528 -0.92528 l -0.89754,0.55471 -0.89754,0.554711 -0.39046,0.755067 -0.39046,0.755067 9.9e-4,0.740743 9.9e-4,0.740744 0.52576,0.862314 0.52576,0.862314 0.86231,0.525759 0.86232,0.525759 0.7529,9.89e-4 0.75291,9.89e-4 z m 32.12844,-0.598544 0.88399,-0.883988 0.17786,-0.708648 0.17786,-0.708649 -0.31583,-0.762479 -0.31583,-0.762479 -0.63803,-0.599399 -0.63803,-0.599398 h -0.83644 -0.83644 l -0.88551,0.966253 -0.8855,0.966253 0.002,0.73149 0.002,0.73149 0.49867,0.756365 0.49866,0.756365 0.75636,0.498662 0.75637,0.498662 0.35719,0.0017 0.35718,0.0017 z m -10.22473,-0.315844 0.82116,-0.935248 v -1.06948 -1.069479 l -0.7734,-0.773398 -0.77339,-0.773397 h -1.05517 -1.05517 l -0.68505,0.814142 -0.68506,0.814142 -0.15374,0.61257 -0.15375,0.612569 0.41312,0.798885 0.41312,0.798885 0.70243,0.552528 0.70242,0.552529 h 0.73066 0.73066 z m 19.93481,-11.13812 0.72512,-0.37306 0.40823,-0.623042 0.40823,-0.623041 -0.075,-21.662597 -0.075,-21.662598 -0.42396,-0.926041 -0.42397,-0.926042 -1.21182,-1.113466 -1.21183,-1.113467 -0.97853,-0.408856 -0.97853,-0.408857 -39.71636,0.02096 -39.716363,0.02096 -1.386142,0.48719 -1.386142,0.48719 -0.832673,0.592915 -0.832674,0.592916 -0.56196,1.215005 -0.561959,1.215005 -0.02602,21.695832 -0.02602,21.695833 0.359238,0.589806 0.359237,0.589806 0.857404,0.468527 0.857404,0.468527 20.5052,0.132292 20.50521,0.132291 22.35729,-0.09547 22.35729,-0.09547 z M 97.443975,61.253339 V 41.472934 l 6.293665,-0.180981 6.29366,-0.180982 3.36363,0.179818 3.36363,0.179819 v 0.263838 0.263839 l -2.72523,2.6724 -2.72522,2.672401 -1.66223,1.984375 -1.66223,1.984375 -2.41895,2.125642 -2.41895,2.125642 -0.86651,1.136072 -0.86652,1.136072 v 0.497458 0.497457 l 1.01737,1.069474 1.01737,1.069474 h 0.73355 0.73355 l 0.96106,-1.010642 0.96106,-1.010643 2.47366,-2.701501 2.47366,-2.701502 1.5182,-1.030986 1.51819,-1.030986 3.33114,-3.525098 3.33114,-3.525099 0.51388,-0.661459 0.51388,-0.661458 0.17846,-0.817409 0.17846,-0.817408 24.57115,-0.159115 24.57114,-0.159115 2.40467,0.155792 2.40466,0.155791 V 60.85436 80.24043 l 0.15874,0.41366 0.15873,0.41366 -39.84623,-0.017 -39.846235,-0.017 z"
       id="path1" /></g></svg>
