<?xml version="1.0" encoding="UTF-8" standalone="no"?>
<!-- Created with Inkscape (http://www.inkscape.org/) -->

<svg
   width="173.46123mm"
   height="56.587029mm"
   viewBox="0 0 173.46123 56.587029"
   version="1.1"
   id="svg1"
   xml:space="preserve"
   inkscape:version="1.3.2 (091e20e, 2023-11-25, custom)"
   sodipodi:docname="Extra4.svg"
   xmlns:inkscape="http://www.inkscape.org/namespaces/inkscape"
   xmlns:sodipodi="http://sodipodi.sourceforge.net/DTD/sodipodi-0.dtd"
   xmlns="http://www.w3.org/2000/svg"
   xmlns:svg="http://www.w3.org/2000/svg"><sodipodi:namedview
     id="namedview1"
     pagecolor="#ffffff"
     bordercolor="#000000"
     borderopacity="0.25"
     inkscape:showpageshadow="2"
     inkscape:pageopacity="0.0"
     inkscape:pagecheckerboard="0"
     inkscape:deskcolor="#d1d1d1"
     inkscape:document-units="mm"
     inkscape:zoom="0.70710678"
     inkscape:cx="173.94827"
     inkscape:cy="301.9346"
     inkscape:window-width="2560"
     inkscape:window-height="1494"
     inkscape:window-x="-11"
     inkscape:window-y="-11"
     inkscape:window-maximized="1"
     inkscape:current-layer="layer1" /><defs
     id="defs1" /><g
     inkscape:label="Capa 1"
     inkscape:groupmode="layer"
     id="layer1"
     style="display:inline"
     transform="translate(-18.909463,-121.18224)"><path
       style="display:inline;fill:#3780ff;fill-opacity:1;stroke-width:0.264583"
       d="m 40.968673,141.16346 0.0076,6.00193 h 14.520542 l -0.05338,0.56435 -0.09152,0.61011 -0.144902,0.63298 -0.114395,0.52622 -0.236416,0.78551 -0.274547,0.81602 -0.244044,0.5796 -0.343183,0.70925 -0.434703,0.7245 -0.350811,0.52622 -0.388942,0.48046 -0.434703,0.47283 -0.427074,0.39657 -0.327933,0.2898 -0.518591,0.45758 -0.671116,0.52622 -0.33556,0.24404 -0.526217,0.34318 -0.686369,0.39658 -0.755007,0.40419 -1.037182,0.4347 -1.20496,0.4042 -0.655865,0.18303 -0.762635,0.15253 -0.617734,0.0915 -0.709247,0.0915 -0.808392,0.0686 -1.647288,0.0305 -0.610108,-0.0305 -0.960919,-0.0915 -1.044808,-0.16015 -1.067686,-0.25167 -1.021929,-0.34319 -0.732129,-0.25167 -0.648237,-0.26692 -0.77026,-0.38894 -0.70925,-0.37369 -0.777886,-0.48809 -0.701622,-0.49571 -0.510966,-0.41182 -0.640612,-0.55673 -0.533842,-0.50333 -0.457581,-0.48046 -0.541469,-0.61773 -0.510964,-0.67112 -0.495713,-0.68637 -0.366064,-0.61011 -0.388943,-0.7245 -0.381317,-0.78551 -0.350811,-0.87703 -0.343185,-0.92279 -0.289801,-1.12107 -0.259295,-1.34224 -0.106769,-1.06006 -0.06101,-1.02955 0.0305,-1.54052 0.129647,-1.28123 0.160154,-1.00667 0.488085,-1.83795 0.442328,-1.11344 0.541469,-1.1592 0.549096,-0.99143 0.388942,-0.59485 0.48046,-0.66349 0.556723,-0.70925 0.594855,-0.6635 0.739753,-0.70924 0.594855,-0.52622 0.808392,-0.64061 1.040995,-0.70544 1.399432,-0.76263 0.907534,-0.36225 0.800764,-0.33175 0.861777,-0.28217 0.861774,-0.22117 0.896097,-0.1449 0.857961,-0.1182 1.090568,-0.0305 h 1.296477 l 0.575786,0.0267 1.399434,0.18303 0.823643,0.16016 1.002863,0.25548 0.526217,0.16396 0.724503,0.27455 0.816017,0.35844 0.652053,0.32031 0.7245,0.42326 0.549098,0.35462 0.686369,0.47284 0.50715,0.3775 0.438515,0.35844 0.396571,0.33174 0.282173,0.25548 4.186859,-4.23643 -0.667305,-0.6101 -0.9266,-0.79695 -0.598668,-0.46521 -0.701622,-0.50334 -0.60248,-0.39275 -0.606293,-0.37751 -0.979984,-0.5224 -0.888469,-0.44996 -1.262157,-0.51858 -1.490949,-0.52241 -1.368927,-0.35844 -1.62441,-0.31649 -1.285039,-0.1449 -0.964731,-0.0839 -2.333657,-0.004 -1.952342,0.22116 -2.783612,0.61774 -0.827458,0.26311 -1.460445,0.53765 -1.006676,0.41564 -1.498573,0.75882 -1.201148,0.7245 -1.677794,1.17827 -0.915159,0.72069 -0.88847,0.80076 -0.575788,0.56816 -0.583414,0.59867 -0.728315,0.84652 -0.522404,0.65205 -0.587228,0.79314 -0.728315,1.14395 -0.480459,0.84653 -0.758821,1.54814 -0.728315,1.87989 -0.369877,1.1859 -0.396569,1.75787 -0.259296,1.67017 -0.08008,0.93422 0.0076,2.6044 0.129648,1.33842 0.171592,1.04099 0.263109,1.29267 0.388943,1.41087 0.438514,1.23928 0.423262,1.06006 0.495712,1.01049 0.724502,1.28504 0.453766,0.74738 0.571975,0.81601 0.568162,0.7512 0.427075,0.53003 0.54147,0.62917 0.678744,0.70162 0.743568,0.72451 0.728315,0.6673 0.743569,0.60248 0.655865,0.50334 0.671116,0.46902 0.892281,0.56054 1.132512,0.65205 0.972357,0.47664 1.132512,0.50334 0.709247,0.2898 0.922787,0.2898 1.040995,0.30506 1.170644,0.26311 0.972357,0.18303 1.296477,0.16778 0.796951,0.0724 2.524318,0.0305 1.159204,-0.0839 1.92946,-0.22879 1.31173,-0.26311 0.945666,-0.25548 0.991426,-0.31649 1.121068,-0.4042 1.163019,-0.53384 0.842708,-0.41564 1.124884,-0.68637 1.174456,-0.82746 0.903722,-0.71687 1.609156,-1.50239 0.93804,-1.102 0.613918,-0.82746 0.800767,-1.22021 0.533842,-0.97999 0.610108,-1.38799 0.26311,-0.694 0.274547,-0.82364 0.369877,-1.23166 0.186846,-0.83889 0.148712,-0.80077 0.205912,-1.31554 0.09533,-1.19734 0.01543,-1.06273 -0.04314,-1.65554 -0.0755,-0.97067 -0.05932,-0.74958 -0.107852,-0.84125 z"
       id="path1" /><path
       style="display:inline;fill:#fa3913;fill-opacity:1;stroke-width:0.264583"
       d="m 78.050278,136.82998 0.95989,0.0135 0.746879,0.0809 0.711827,0.12134 0.68217,0.12672 0.514995,0.13212 0.792718,0.21301 0.825072,0.30199 0.547351,0.23997 0.614762,0.26963 0.722612,0.38018 0.84125,0.52039 0.571619,0.40176 0.428715,0.33434 0.539264,0.45298 0.482642,0.45837 0.682167,0.72801 0.396359,0.47455 0.593188,0.8089 0.307382,0.48533 0.390965,0.69026 0.342431,0.6606 0.256151,0.59049 0.304684,0.79002 0.180652,0.53117 0.16178,0.55545 0.118639,0.50421 0.09707,0.50691 0.105156,0.59858 0.08628,0.69565 0.06741,1.00572 -0.0027,1.01652 -0.03236,0.42871 -0.04584,0.47455 -0.06471,0.59589 -0.09437,0.63903 -0.145601,0.71182 -0.134815,0.49073 -0.159084,0.55544 -0.207616,0.60937 -0.156387,0.36131 -0.293897,0.68486 -0.196831,0.41254 -0.269632,0.50151 -0.253455,0.42332 -0.337039,0.52309 -0.514996,0.7307 -0.458374,0.55275 -0.806199,0.8736 -0.393663,0.37479 -0.590492,0.515 -0.469159,0.34513 -0.752274,0.52578 -1.005726,0.5851 -0.649811,0.31547 -0.900571,0.39096 -0.730702,0.26155 -0.781931,0.22649 -0.87091,0.19413 -0.738791,0.10516 -0.822375,0.11864 -1.22413,0.0243 -0.916746,-0.005 -1.005727,-0.10515 -0.69565,-0.10516 -0.986851,-0.20762 -0.790022,-0.23458 -0.857427,-0.30198 -1.102794,-0.46916 -0.533871,-0.27772 -0.711827,-0.40445 -0.498819,-0.32086 -0.779235,-0.56623 -0.636331,-0.49612 -0.674079,-0.64442 -0.485338,-0.48803 -0.428715,-0.515 -0.301988,-0.38827 -0.45298,-0.62824 -0.568923,-0.94911 -0.223795,-0.40714 -0.38018,-0.84664 -0.242667,-0.55814 -0.310076,-0.93023 -0.172567,-0.54196 -0.17526,-0.86013 -0.137512,-0.71721 -0.10246,-0.77924 -0.03236,-0.78463 v -1.2403 l 0.06741,-0.68756 0.08089,-0.69835 0.183351,-1.12436 0.213008,-0.83047 0.248063,-0.76575 0.326252,-0.9518 0.331647,-0.70374 0.30738,-0.58241 0.426019,-0.71183 0.415234,-0.61206 0.679472,-0.84934 0.396359,-0.45568 0.388268,-0.39636 0.412535,-0.38826 1.029994,-0.86283 0.97337,-0.66059 0.574316,-0.35052 0.843946,-0.43411 1.264574,-0.53657 1.048866,-0.32895 1.213342,-0.25884 1.186381,-0.17796 0.935623,-0.10246 z"
       id="path3"
       inkscape:label="path2" /><path
       style="fill:#ffffff;fill-opacity:1;stroke-width:0.264583"
       d="m 70.028736,151.47368 0.01617,0.55544 0.113244,0.76575 0.242668,0.91136 0.275024,0.8035 0.40445,0.85204 0.45298,0.74957 0.399055,0.53927 0.636331,0.69025 0.458374,0.40984 0.900568,0.65251 0.927534,0.47994 0.701043,0.26424 0.620151,0.16718 0.787326,0.16717 1.450618,0.0539 1.078526,-0.12942 1.132454,-0.33973 0.992243,-0.45299 0.792718,-0.49072 0.792718,-0.65791 0.5123,-0.52308 0.550047,-0.68487 0.479946,-0.728 0.334344,-0.62555 0.301987,-0.77114 0.253453,-0.81969 0.183351,-0.78732 0.102459,-1.11088 0.01617,-0.97068 -0.09168,-0.88439 -0.296593,-1.36433 -0.199527,-0.56084 -0.388271,-0.89518 -0.426019,-0.75496 -0.436803,-0.62016 -0.5123,-0.58779 -0.555439,-0.51769 -0.674082,-0.54466 -0.916747,-0.52848 -0.711827,-0.28581 -0.997638,-0.31816 -1.062347,-0.17796 -0.71183,0.005 -0.728003,-0.0162 -0.862822,0.13481 -0.749575,0.21032 -0.620155,0.23727 -0.663294,0.31278 -0.550048,0.32895 -0.560834,0.39905 -0.544656,0.45838 -0.458375,0.47455 -0.490728,0.60936 -0.523086,0.77115 -0.35052,0.66869 -0.339736,0.82507 -0.177958,0.60398 -0.172564,0.67947 -0.09707,0.70643 -0.0701,0.74418 z"
       id="path2"
       inkscape:label="path3" /><path
       style="display:inline;fill:#fcbd06;fill-opacity:1;stroke-width:0.264583"
       d="m 108.90804,136.78906 0.95989,0.0135 0.74688,0.0809 0.71183,0.12134 0.68217,0.12672 0.515,0.13212 0.79271,0.21301 0.82508,0.30199 0.54735,0.23997 0.61476,0.26963 0.72261,0.38018 0.84125,0.52039 0.57162,0.40176 0.42871,0.33434 0.53927,0.45298 0.48264,0.45837 0.68217,0.72801 0.39636,0.47455 0.59318,0.8089 0.30739,0.48533 0.39096,0.69026 0.34243,0.6606 0.25615,0.59049 0.30469,0.79002 0.18065,0.53117 0.16178,0.55545 0.11864,0.50421 0.0971,0.50691 0.10515,0.59858 0.0863,0.69565 0.0674,1.00572 -0.003,1.01652 -0.0324,0.42871 -0.0458,0.47455 -0.0647,0.59589 -0.0944,0.63903 -0.1456,0.71182 -0.13481,0.49073 -0.15909,0.55544 -0.20761,0.60937 -0.15639,0.36131 -0.2939,0.68486 -0.19683,0.41254 -0.26963,0.50151 -0.25345,0.42332 -0.33704,0.52309 -0.515,0.7307 -0.45837,0.55275 -0.8062,0.8736 -0.39366,0.37479 -0.5905,0.515 -0.46916,0.34513 -0.75227,0.52578 -1.00573,0.5851 -0.64981,0.31547 -0.90057,0.39096 -0.7307,0.26155 -0.78193,0.22649 -0.87091,0.19413 -0.73879,0.10516 -0.82238,0.11864 -1.22413,0.0243 -0.91674,-0.005 -1.00573,-0.10515 -0.69565,-0.10516 -0.98685,-0.20762 -0.79002,-0.23458 -0.85743,-0.30198 -1.10279,-0.46916 -0.53387,-0.27772 -0.71183,-0.40445 -0.49882,-0.32086 -0.779236,-0.56623 -0.636331,-0.49612 -0.674079,-0.64442 -0.485338,-0.48803 -0.428715,-0.515 -0.301988,-0.38827 -0.45298,-0.62824 -0.568923,-0.94911 -0.223795,-0.40714 -0.38018,-0.84664 -0.242667,-0.55814 -0.310076,-0.93023 -0.172567,-0.54196 -0.17526,-0.86013 -0.137512,-0.71721 -0.10246,-0.77924 -0.03236,-0.78463 v -1.2403 l 0.06741,-0.68756 0.08089,-0.69835 0.183351,-1.12436 0.213008,-0.83047 0.248063,-0.76575 0.326252,-0.9518 0.331647,-0.70374 0.30738,-0.58241 0.426019,-0.71183 0.415234,-0.61206 0.679472,-0.84934 0.396359,-0.45568 0.388268,-0.39636 0.412535,-0.38826 1.029999,-0.86283 0.97337,-0.66059 0.57431,-0.35052 0.84395,-0.43411 1.26457,-0.53657 1.04887,-0.32895 1.21334,-0.25884 1.18638,-0.17796 0.93562,-0.10246 z"
       id="path3-9"
       inkscape:label="path4" /><path
       style="fill:#ffffff;fill-opacity:1;stroke-width:0.264583"
       d="m 100.8865,151.43276 0.0162,0.55544 0.11325,0.76575 0.24266,0.91136 0.27503,0.8035 0.40445,0.85204 0.45298,0.74957 0.39905,0.53927 0.63633,0.69025 0.45838,0.40984 0.90057,0.65251 0.92753,0.47994 0.70104,0.26424 0.62015,0.16718 0.78733,0.16717 1.45062,0.0539 1.07852,-0.12942 1.13246,-0.33973 0.99224,-0.45299 0.79272,-0.49072 0.79272,-0.65791 0.5123,-0.52308 0.55004,-0.68487 0.47995,-0.728 0.33434,-0.62555 0.30199,-0.77114 0.25345,-0.81969 0.18336,-0.78732 0.10245,-1.11088 0.0162,-0.97068 -0.0917,-0.88439 -0.29659,-1.36433 -0.19953,-0.56084 -0.38827,-0.89518 -0.42602,-0.75496 -0.4368,-0.62016 -0.5123,-0.58779 -0.55544,-0.51769 -0.67408,-0.54466 -0.91675,-0.52848 -0.71182,-0.28581 -0.99764,-0.31816 -1.06235,-0.17796 -0.71183,0.005 -0.728,-0.0162 -0.86282,0.13481 -0.74958,0.21032 -0.62015,0.23727 -0.6633,0.31278 -0.55005,0.32895 -0.56083,0.39905 -0.54466,0.45838 -0.45837,0.47455 -0.49073,0.60936 -0.52308,0.77115 -0.35052,0.66869 -0.33974,0.82507 -0.17796,0.60398 -0.17256,0.67947 -0.0971,0.70643 -0.0701,0.74418 z"
       id="path2-9"
       inkscape:label="path5" /><path
       style="display:inline;fill:#3780ff;fill-opacity:1;stroke-width:0.264583"
       d="m 146.60736,140.08849 0.0175,-2.41462 5.89329,0.0175 -0.0117,25.15758 0.005,1.27949 -0.0579,0.76068 -0.14056,1.29811 -0.15709,0.96325 -0.25632,1.08314 -0.26045,0.88056 -0.20257,0.60772 -0.24572,0.60183 -0.21924,0.49988 -0.29818,0.60219 -0.33617,0.58757 -0.29817,0.4648 -0.41218,0.57589 -0.45311,0.58172 -0.57003,0.60512 -0.39757,0.38002 -0.71035,0.5905 -0.4268,0.30402 -0.7425,0.4648 -0.49696,0.26602 -0.97929,0.45018 -0.8799,0.3391 -0.51742,0.16078 -0.44433,0.10231 -0.73959,0.17832 -0.75128,0.12862 -0.71912,0.0848 -0.65773,0.0789 h -1.71888 l -1.37978,-0.13739 -1.03776,-0.19001 -0.82436,-0.21048 -0.99098,-0.33032 -0.84775,-0.36541 -0.82143,-0.41218 -0.6402,-0.39172 -0.56711,-0.36541 -0.63142,-0.48526 -0.51742,-0.43264 -0.36833,-0.3274 -0.54665,-0.54665 -0.41803,-0.44726 -0.41218,-0.5028 -0.44433,-0.57881 -0.42387,-0.65189 -0.34495,-0.5788 -0.23971,-0.44726 -0.44433,-0.88867 5.41972,-2.32107 0.26349,0.62103 0.24391,0.44648 0.27286,0.41755 0.33899,0.49196 0.37621,0.45888 0.45475,0.47956 0.48369,0.46302 0.42168,0.3266 0.46302,0.30179 0.53744,0.29765 0.3514,0.16537 0.47955,0.19843 0.64079,0.19017 0.7028,0.12403 0.47542,0.0413 1.5503,0.008 0.81855,-0.10335 0.76481,-0.18604 0.50436,-0.17776 0.51677,-0.20671 0.51676,-0.27698 0.31006,-0.17364 0.34313,-0.25218 0.339,-0.25631 0.33073,-0.30179 0.35553,-0.38861 0.339,-0.44648 0.24391,-0.37621 0.25218,-0.45062 0.27286,-0.56637 0.12815,-0.33073 0.19431,-0.63252 0.14056,-0.61185 0.2067,-1.20716 0.0413,-1.19889 -0.0124,-2.24896 -0.31625,0.29972 -0.41755,0.39274 -0.47336,0.40515 -0.5209,0.38034 -0.53123,0.3638 -0.63459,0.35553 -0.61184,0.28732 -0.96945,0.34933 -1.01286,0.24805 -1.11828,0.16537 -0.79582,0.0496 -1.05213,-0.002 -1.20096,-0.16743 -0.82682,-0.17777 -1.15549,-0.32246 -0.87436,-0.33486 -0.78755,-0.35554 -0.64906,-0.35553 -0.44028,-0.24598 -0.67386,-0.44235 -0.48369,-0.34107 -0.38241,-0.30385 -0.48369,-0.40515 -0.40101,-0.37 -0.58911,-0.59945 -0.29146,-0.32039 -0.32039,-0.38241 -0.24805,-0.30799 -0.49609,-0.67386 -0.23978,-0.38861 -0.22944,-0.39274 -0.46716,-0.85576 -0.18396,-0.40101 -0.26872,-0.58291 -0.18604,-0.47129 -0.20257,-0.58911 -0.17983,-0.57051 -0.0785,-0.32866 -0.19017,-0.92397 -0.0103,-0.22118 -0.093,-0.52916 -0.0641,-0.64286 -0.0104,-0.48576 -0.008,-0.5457 -0.0104,-0.77928 0.0661,-0.77101 0.12609,-0.99839 0.18603,-0.86817 0.19638,-0.69246 0.20257,-0.64492 0.24804,-0.678 0.60772,-1.30018 0.50436,-0.85162 0.54157,-0.80822 0.40101,-0.53124 0.34933,-0.44235 0.25425,-0.26665 0.74001,-0.79168 0.85989,-0.76068 0.6966,-0.52296 0.44028,-0.29559 0.47543,-0.30799 0.47749,-0.28526 0.35346,-0.1943 0.5023,-0.23151 0.45062,-0.19017 0.53743,-0.21498 0.60152,-0.20877 0.42168,-0.11369 0.63665,-0.16536 0.46715,-0.0992 0.74208,-0.11369 0.79375,-0.0599 0.82682,0.004 0.61185,0.0103 0.75861,0.0765 0.6904,0.12196 0.84542,0.21704 0.59325,0.20877 0.66352,0.25838 0.63459,0.29146 0.59531,0.339 0.56017,0.3824 0.49403,0.40101 0.33073,0.27699 0.28732,0.25631 0.22531,0.20878 z"
       id="path4"
       inkscape:label="path6" /><path
       style="fill:#ffffff;fill-opacity:1;stroke-width:0.264583"
       d="m 147.00705,150.05595 0.0434,0.52917 v 0.69867 l -0.0393,0.58084 -0.0724,0.67593 -0.0889,0.59531 -0.10335,0.38241 -0.19017,0.66352 -0.20257,0.54364 -0.26252,0.5705 -0.25218,0.5023 -0.39068,0.60151 -0.29765,0.37414 -0.43202,0.48783 -0.3514,0.33486 -0.33073,0.29765 -0.48575,0.38034 -0.39688,0.24392 -0.75034,0.40307 -0.45682,0.19431 -0.78962,0.23151 -0.79168,0.13435 -0.59945,0.0372 -0.53123,0.006 -0.46095,-0.0289 -0.48576,-0.0765 -0.62219,-0.13642 -0.70073,-0.21704 -0.35553,-0.1385 -0.47129,-0.2129 -0.47129,-0.26252 -0.36794,-0.24391 -0.5395,-0.39688 -0.39067,-0.33073 -0.5023,-0.50849 -0.47335,-0.56224 -0.40721,-0.53537 -0.30593,-0.54777 -0.36173,-0.76274 -0.20051,-0.54157 -0.17983,-0.54571 -0.21291,-0.99425 -0.0455,-0.52917 -0.0351,-0.66559 v -0.66146 l -0.0103,-0.51263 0.0393,-0.40928 0.10542,-0.53743 0.13642,-0.5023 0.19431,-0.70486 0.20877,-0.54777 0.22944,-0.54777 0.25632,-0.45476 0.22531,-0.3762 0.20877,-0.31006 0.339,-0.46095 0.27698,-0.30386 0.28525,-0.31833 0.48576,-0.45268 0.25425,-0.20671 0.29559,-0.21497 0.21498,-0.13643 0.44648,-0.26458 0.42995,-0.22738 0.39687,-0.17983 0.45062,-0.17983 0.48369,-0.1633 0.40101,-0.0951 0.43202,-0.0682 0.37,-0.0475 0.48162,-0.0248 h 0.62632 l 0.51263,0.0723 0.64492,0.12609 0.53951,0.12609 0.52296,0.18604 0.40721,0.19017 0.37207,0.19017 0.40721,0.23358 0.42582,0.28318 0.46095,0.38654 0.30799,0.29146 0.35554,0.38447 0.41341,0.48369 0.28525,0.43615 0.34106,0.60565 0.17984,0.3576 0.19224,0.42168 0.20463,0.48782 0.17157,0.5085 0.12609,0.47956 0.10335,0.46509 0.0868,0.59118 z"
       id="path5"
       inkscape:label="path7" /><path
       style="fill:#37b137;fill-opacity:1;stroke-width:0.264583"
       d="m 156.96819,164.21943 6.26732,0.0248 -0.0207,-41.59746 -6.25078,0.004 z"
       id="path6"
       inkscape:label="path8" /><path
       style="display:inline;fill:#fa3913;fill-opacity:1;stroke-width:0.264583"
       d="m 192.37069,147.43079 -18.9278,7.82942 0.19293,0.34202 0.27479,0.44433 0.2514,0.38003 0.32156,0.42095 0.29525,0.34787 0.35664,0.36833 0.26601,0.24847 0.36833,0.30402 0.36249,0.26602 0.55249,0.31864 0.46188,0.21339 0.56419,0.20463 0.5788,0.16078 0.6782,0.14324 0.58173,0.0789 1.41778,-0.006 0.5028,-0.0468 0.91206,-0.17247 0.64896,-0.20171 0.64604,-0.26309 0.68697,-0.35079 0.34787,-0.20755 0.52911,-0.3888 0.28063,-0.24555 0.31571,-0.3011 0.15493,-0.15493 0.3771,-0.41218 0.29233,-0.34787 0.28648,-0.35371 0.35372,-0.46188 4.8263,3.23898 -0.42095,0.55834 -0.41218,0.52911 -0.31279,0.35956 -0.38587,0.40049 -0.45311,0.47941 -0.46772,0.41803 -0.53495,0.45603 -0.85944,0.63727 -0.51157,0.33325 -0.91206,0.51742 -0.59927,0.28355 -0.63435,0.27479 -0.71619,0.25724 -1.14592,0.33618 -1.04945,0.21047 -0.89744,0.12863 -0.35372,0.0175 -0.81267,0.0672 -1.04652,-0.006 -0.84775,-0.0614 -0.77174,-0.11693 -0.7542,-0.1374 -0.60511,-0.14908 -0.83898,-0.24556 -0.75713,-0.28063 -0.85066,-0.35956 -0.60512,-0.3011 -0.45311,-0.24847 -0.46772,-0.28356 -0.44141,-0.30402 -0.49111,-0.36248 -0.48233,-0.35956 -0.50573,-0.47942 -0.47941,-0.43849 -0.49403,-0.56126 -0.40926,-0.4648 -0.56419,-0.75128 -0.31571,-0.47941 -0.38587,-0.64897 -0.33033,-0.62265 -0.32156,-0.70743 -0.2017,-0.49403 -0.19586,-0.57881 -0.24556,-0.85651 -0.15201,-0.59635 -0.14031,-0.74251 -0.11109,-0.72497 -0.0643,-0.7542 -0.0468,-1.26869 0.0175,-0.66651 0.0672,-0.8799 0.0994,-0.75712 0.15493,-0.77759 0.16955,-0.73958 0.19294,-0.65774 0.23093,-0.69281 0.3888,-0.91206 0.3274,-0.69281 0.30402,-0.53203 0.4648,-0.78636 0.53788,-0.73959 0.45895,-0.56711 0.55542,-0.61681 0.5525,-0.51741 0.41802,-0.35372 0.46188,-0.3654 0.40925,-0.29818 0.68112,-0.43849 0.54665,-0.30986 0.99684,-0.48234 0.73081,-0.29817 1.11376,-0.33618 1.05238,-0.25432 1.11083,-0.14909 0.87991,-0.0731 1.02606,0.006 0.88283,0.0731 0.99098,0.16662 1.01437,0.25141 0.63143,0.19293 0.75128,0.29525 0.78635,0.37418 0.69574,0.39756 0.61096,0.4151 0.72789,0.54373 0.57588,0.51742 0.5905,0.59342 0.7162,0.82144 0.39464,0.52618 0.54665,0.80098 0.4268,0.7045 0.39756,0.67235 0.37125,0.75712 0.36249,0.77759 0.26602,0.61096 z"
       id="path7"
       inkscape:label="path9" /><path
       style="fill:#ffffff;fill-opacity:1;stroke-width:0.264583"
       d="m 172.44425,150.52104 12.63592,-5.26479 -0.17156,-0.36587 -0.24805,-0.37414 -0.25631,-0.32453 -0.23772,-0.27285 -0.31625,-0.29559 -0.35347,-0.26665 -0.38861,-0.25424 -0.47542,-0.23978 -0.43202,-0.17777 -0.47749,-0.14883 -0.51056,-0.10749 -0.5457,-0.10335 -0.49403,-0.0413 -0.64285,-0.008 -0.62012,0.0641 -0.57051,0.11783 -0.62218,0.19017 -0.55811,0.20257 -0.65732,0.33073 -0.58291,0.3576 -0.61805,0.45062 -0.50437,0.46095 -0.56017,0.59945 -0.60978,0.83922 -0.49403,0.92191 -0.3576,0.95911 -0.19637,0.80616 -0.11575,0.63251 -0.031,0.5209 z"
       id="path8"
       inkscape:label="path10" /></g></svg>
